<svg width="56" height="56" viewBox="0 0 56 56" fill="none" xmlns="http://www.w3.org/2000/svg">
<path fill-rule="evenodd" clip-rule="evenodd" d="M14.1401 11.3399C17.816 7.66398 22.8016 5.59888 28.0001 5.59888C33.1986 5.59888 38.1842 7.66398 41.8601 11.3399C45.536 15.0158 47.6011 20.0014 47.6011 25.1999C47.6011 30.3984 45.536 35.384 41.8601 39.0599L28.0001 52.9199L14.1401 39.0599C12.3199 37.2398 10.876 35.079 9.89083 32.7009C8.90572 30.3228 8.39868 27.774 8.39868 25.1999C8.39868 22.6258 8.90572 20.0769 9.89083 17.6988C10.876 15.3207 12.3199 13.1599 14.1401 11.3399V11.3399ZM28.0001 30.7999C29.4853 30.7999 30.9097 30.2099 31.9599 29.1597C33.0101 28.1095 33.6001 26.6851 33.6001 25.1999C33.6001 23.7147 33.0101 22.2903 31.9599 21.2401C30.9097 20.1899 29.4853 19.5999 28.0001 19.5999C26.5149 19.5999 25.0905 20.1899 24.0403 21.2401C22.9901 22.2903 22.4001 23.7147 22.4001 25.1999C22.4001 26.6851 22.9901 28.1095 24.0403 29.1597C25.0905 30.2099 26.5149 30.7999 28.0001 30.7999Z" fill="#E67817"/>
</svg>
