<svg width="1570" height="988" viewBox="0 0 1570 988" fill="none" xmlns="http://www.w3.org/2000/svg">
<path d="M212 648V408.5H68V245H1257V201H1343.5V475H1275V648H212Z" fill="white" stroke="#4D485C" stroke-width="10"/>
<rect x="1090" y="467" width="16" height="10" fill="white"/>
<rect x="1035" y="471" width="237" height="174" stroke="#4D485C" stroke-width="2"/>
<rect x="970" y="467" width="16" height="10" fill="white"/>
<rect x="916" y="471" width="119" height="174" stroke="#4D485C" stroke-width="2"/>
<rect x="851" y="467" width="16" height="10" fill="white"/>
<rect x="801" y="471" width="115" height="174" stroke="#4D485C" stroke-width="2"/>
<rect x="510" y="465" width="16" height="10" fill="white"/>
<rect x="437" y="471" width="124" height="174" stroke="#4D485C" stroke-width="2"/>
<rect x="371" y="465" width="16" height="10" fill="white"/>
<rect x="317" y="471" width="120" height="174" stroke="#4D485C" stroke-width="2"/>
<rect x="270" y="465" width="16" height="10" fill="white"/>
<rect x="216" y="471" width="101" height="174" stroke="#4D485C" stroke-width="2"/>
<rect x="1017" y="249" width="170" height="155" stroke="#4D485C" stroke-width="2"/>
<rect x="1049" y="400" width="16" height="10" fill="white"/>
<rect x="1143" y="400" width="16" height="10" fill="white"/>
<path d="M1262 332.1H1339" stroke="#4D485C"/>
<path d="M1262 326.3H1339" stroke="#4D485C"/>
<path d="M1262 320.5H1339" stroke="#4D485C"/>
<path d="M1262 314.7H1339" stroke="#4D485C"/>
<path d="M1262 308.9H1339" stroke="#4D485C"/>
<path d="M1262 303.1H1339" stroke="#4D485C"/>
<path d="M1262 297.3H1339" stroke="#4D485C"/>
<path d="M1262 291.5H1339" stroke="#4D485C"/>
<path d="M1262 285.7H1339" stroke="#4D485C"/>
<path d="M1262 279.9H1339" stroke="#4D485C"/>
<path d="M1262 274.1H1339" stroke="#4D485C"/>
<path d="M1262 268.3H1339" stroke="#4D485C"/>
<path d="M1262 262.5H1339" stroke="#4D485C"/>
<path d="M1262 256.7H1339" stroke="#4D485C"/>
<path d="M1262 250.9H1339" stroke="#4D485C"/>
<rect x="606" y="466" width="16" height="8" fill="white"/>
<rect x="749" y="466" width="16" height="10" fill="white"/>
<rect x="561" y="471" width="240" height="174" stroke="#4D485C" stroke-width="2"/>
<rect x="971" y="400" width="16" height="10" fill="white"/>
<rect x="932" y="249" width="85" height="155" stroke="#4D485C" stroke-width="2"/>
<rect x="1216" y="372" width="16" height="10" fill="white"/>
<rect x="1187" y="248" width="74" height="128" stroke="#4D485C" stroke-width="2"/>
<rect x="885" y="398" width="16" height="10" fill="white"/>
<rect x="846" y="249" width="86" height="155" stroke="#4D485C" stroke-width="2"/>
<rect x="671" y="248" width="175" height="156" stroke="#4D485C" stroke-width="2"/>
<rect x="718" y="398" width="16" height="10" fill="white"/>
<rect x="612" y="400" width="16" height="10" fill="white"/>
<rect x="575" y="248" width="96" height="156" stroke="#4D485C" stroke-width="2"/>
<rect x="521" y="398" width="16" height="10" fill="white"/>
<rect x="493" y="248" width="82" height="156" stroke="#4D485C" stroke-width="2"/>
<rect x="400" y="248" width="93" height="156" stroke="#4D485C" stroke-width="2"/>
<rect x="439" y="398" width="16" height="10" fill="white"/>
<rect x="374" y="410" width="16" height="10" transform="rotate(-180 374 410)" fill="white"/>
<rect x="400" y="404" width="75" height="156" transform="rotate(-180 400 404)" stroke="#4D485C" stroke-width="2"/>
<path d="M325 350.4H399" stroke="#4D485C"/>
<path d="M325 344.6H399" stroke="#4D485C"/>
<path d="M325 338.8H399" stroke="#4D485C"/>
<path d="M325 333H399" stroke="#4D485C"/>
<path d="M325 327.2H399" stroke="#4D485C"/>
<path d="M325 321.4H399" stroke="#4D485C"/>
<path d="M325 315.6H399" stroke="#4D485C"/>
<path d="M325 309.8H399" stroke="#4D485C"/>
<path d="M325 304H399" stroke="#4D485C"/>
<path d="M325 298.2H399" stroke="#4D485C"/>
<path d="M325 292.4H399" stroke="#4D485C"/>
<path d="M325 286.6H399" stroke="#4D485C"/>
<line x1="361.5" y1="287" x2="361.5" y2="350" stroke="#4D485C"/>
<path d="M216 325V407.5H70V247.5H162V325H216Z" stroke="#4D485C" stroke-width="2"/>
<path d="M72 301H116.5V296V306.5" stroke="#4D485C" stroke-width="2"/>
<path d="M71 330.619H116V323V339" stroke="#4D485C" stroke-width="2"/>
<path d="M71 366H116V356V377" stroke="#4D485C" stroke-width="2"/>
<path d="M72 274H116.5V269V279.5" stroke="#4D485C" stroke-width="2"/>
<path d="M116.5 405.5V393" stroke="#4D485C" stroke-width="2"/>
<path d="M116.5 253.5V247.5" stroke="#4D485C" stroke-width="2"/>
<rect x="212" y="392" width="14" height="9" transform="rotate(-90 212 392)" fill="white"/>
<rect x="169" y="325" width="47" height="26" stroke="#4D485C" stroke-width="2"/>
<path d="M162 325V248H324.5V360H216V325H162Z" stroke="#4D485C" stroke-width="2"/>
<line x1="1301.5" y1="250" x2="1301.5" y2="333" stroke="#4D485C"/>
</svg>
